<mxfile host="app.diagrams.net" modified="2023-10-03T05:13:37.426Z" agent="Mozilla/5.0 (Windows NT 10.0; Win64; x64) AppleWebKit/537.36 (KHTML, like Gecko) Chrome/117.0.0.0 Safari/537.36 Edg/117.0.2045.47" etag="oVc3wApNS2x5ODZxcR43" version="22.0.1" type="github">
  <diagram name="第 1 页" id="P3KDwYldCTl1qMirLRxm">
    <mxGraphModel dx="2853" dy="1145" grid="1" gridSize="10" guides="1" tooltips="1" connect="1" arrows="1" fold="1" page="1" pageScale="1" pageWidth="827" pageHeight="1169" math="0" shadow="0">
      <root>
        <mxCell id="0" />
        <mxCell id="1" parent="0" />
        <mxCell id="ljiFlFl1EuN8HkqJvBom-3" style="edgeStyle=orthogonalEdgeStyle;rounded=0;orthogonalLoop=1;jettySize=auto;html=1;entryX=0;entryY=0.5;entryDx=0;entryDy=0;" parent="1" source="ljiFlFl1EuN8HkqJvBom-1" target="ljiFlFl1EuN8HkqJvBom-2" edge="1">
          <mxGeometry relative="1" as="geometry" />
        </mxCell>
        <mxCell id="ljiFlFl1EuN8HkqJvBom-1" value="&lt;font style=&quot;font-size: 17px;&quot;&gt;小公园&lt;/font&gt;" style="rounded=1;whiteSpace=wrap;html=1;fontSize=17;" parent="1" vertex="1">
          <mxGeometry x="-770" y="290" width="120" height="60" as="geometry" />
        </mxCell>
        <mxCell id="ljiFlFl1EuN8HkqJvBom-5" style="edgeStyle=orthogonalEdgeStyle;rounded=0;orthogonalLoop=1;jettySize=auto;html=1;" parent="1" source="ljiFlFl1EuN8HkqJvBom-2" target="ljiFlFl1EuN8HkqJvBom-4" edge="1">
          <mxGeometry relative="1" as="geometry" />
        </mxCell>
        <mxCell id="ljiFlFl1EuN8HkqJvBom-2" value="百货大楼" style="rounded=1;whiteSpace=wrap;html=1;fontSize=17;" parent="1" vertex="1">
          <mxGeometry x="-580" y="290" width="120" height="60" as="geometry" />
        </mxCell>
        <mxCell id="ljiFlFl1EuN8HkqJvBom-7" style="edgeStyle=orthogonalEdgeStyle;rounded=0;orthogonalLoop=1;jettySize=auto;html=1;" parent="1" source="ljiFlFl1EuN8HkqJvBom-4" target="ljiFlFl1EuN8HkqJvBom-6" edge="1">
          <mxGeometry relative="1" as="geometry" />
        </mxCell>
        <mxCell id="ljiFlFl1EuN8HkqJvBom-4" value="老妈宫戏台" style="rounded=1;whiteSpace=wrap;html=1;fontSize=17;" parent="1" vertex="1">
          <mxGeometry x="-413" y="290" width="120" height="60" as="geometry" />
        </mxCell>
        <mxCell id="ljiFlFl1EuN8HkqJvBom-9" style="edgeStyle=orthogonalEdgeStyle;rounded=0;orthogonalLoop=1;jettySize=auto;html=1;" parent="1" source="ljiFlFl1EuN8HkqJvBom-6" target="ljiFlFl1EuN8HkqJvBom-8" edge="1">
          <mxGeometry relative="1" as="geometry" />
        </mxCell>
        <mxCell id="ljiFlFl1EuN8HkqJvBom-6" value="汕头旅社" style="rounded=1;whiteSpace=wrap;html=1;fontSize=17;" parent="1" vertex="1">
          <mxGeometry x="-260" y="290" width="120" height="60" as="geometry" />
        </mxCell>
        <mxCell id="ljiFlFl1EuN8HkqJvBom-14" style="edgeStyle=orthogonalEdgeStyle;rounded=0;orthogonalLoop=1;jettySize=auto;html=1;" parent="1" source="ljiFlFl1EuN8HkqJvBom-8" target="ljiFlFl1EuN8HkqJvBom-10" edge="1">
          <mxGeometry relative="1" as="geometry" />
        </mxCell>
        <mxCell id="ljiFlFl1EuN8HkqJvBom-8" value="镇邦美食街" style="rounded=1;whiteSpace=wrap;html=1;fontSize=17;" parent="1" vertex="1">
          <mxGeometry x="-90" y="290" width="120" height="60" as="geometry" />
        </mxCell>
        <mxCell id="ljiFlFl1EuN8HkqJvBom-15" style="edgeStyle=orthogonalEdgeStyle;rounded=0;orthogonalLoop=1;jettySize=auto;html=1;" parent="1" source="ljiFlFl1EuN8HkqJvBom-10" target="ljiFlFl1EuN8HkqJvBom-11" edge="1">
          <mxGeometry relative="1" as="geometry" />
        </mxCell>
        <mxCell id="ljiFlFl1EuN8HkqJvBom-10" value="潮汕电影史馆" style="rounded=1;whiteSpace=wrap;html=1;fontSize=17;" parent="1" vertex="1">
          <mxGeometry x="70" y="290" width="120" height="60" as="geometry" />
        </mxCell>
        <mxCell id="ljiFlFl1EuN8HkqJvBom-16" style="edgeStyle=orthogonalEdgeStyle;rounded=0;orthogonalLoop=1;jettySize=auto;html=1;" parent="1" source="ljiFlFl1EuN8HkqJvBom-11" target="ljiFlFl1EuN8HkqJvBom-12" edge="1">
          <mxGeometry relative="1" as="geometry" />
        </mxCell>
        <mxCell id="ljiFlFl1EuN8HkqJvBom-11" value="邮电总局" style="rounded=1;whiteSpace=wrap;html=1;fontSize=17;" parent="1" vertex="1">
          <mxGeometry x="230" y="290" width="120" height="60" as="geometry" />
        </mxCell>
        <mxCell id="ljiFlFl1EuN8HkqJvBom-12" value="开埠文化馆" style="rounded=1;whiteSpace=wrap;html=1;fontSize=17;" parent="1" vertex="1">
          <mxGeometry x="400" y="290" width="120" height="60" as="geometry" />
        </mxCell>
        <mxCell id="ljiFlFl1EuN8HkqJvBom-17" value="吃" style="rounded=1;whiteSpace=wrap;html=1;fontSize=17;" parent="1" vertex="1">
          <mxGeometry x="-770" y="470" width="120" height="60" as="geometry" />
        </mxCell>
        <mxCell id="ljiFlFl1EuN8HkqJvBom-18" value="十二中美食街" style="rounded=1;whiteSpace=wrap;html=1;fontSize=17;" parent="1" vertex="1">
          <mxGeometry x="-590" y="470" width="120" height="60" as="geometry" />
        </mxCell>
        <mxCell id="ljiFlFl1EuN8HkqJvBom-19" value="粿条" style="rounded=1;whiteSpace=wrap;html=1;fontSize=17;" parent="1" vertex="1">
          <mxGeometry x="-420" y="470" width="120" height="60" as="geometry" />
        </mxCell>
        <mxCell id="ljiFlFl1EuN8HkqJvBom-20" value="肠粉" style="rounded=1;whiteSpace=wrap;html=1;fontSize=17;" parent="1" vertex="1">
          <mxGeometry x="-270" y="470" width="120" height="60" as="geometry" />
        </mxCell>
        <mxCell id="2quBKqJV2iN9EVZeqGEq-1" value="&lt;font style=&quot;font-size: 17px;&quot;&gt;桂园&lt;/font&gt;" style="rounded=1;whiteSpace=wrap;html=1;fontSize=17;" parent="1" vertex="1">
          <mxGeometry x="-780" y="620" width="120" height="60" as="geometry" />
        </mxCell>
        <mxCell id="2quBKqJV2iN9EVZeqGEq-2" value="&lt;font style=&quot;font-size: 17px;&quot;&gt;馥园&lt;/font&gt;" style="rounded=1;whiteSpace=wrap;html=1;fontSize=17;" parent="1" vertex="1">
          <mxGeometry x="-600" y="630" width="120" height="60" as="geometry" />
        </mxCell>
        <mxCell id="2quBKqJV2iN9EVZeqGEq-3" value="广场轮渡码头" style="rounded=1;whiteSpace=wrap;html=1;fontSize=17;" parent="1" vertex="1">
          <mxGeometry x="-420" y="620" width="120" height="60" as="geometry" />
        </mxCell>
        <mxCell id="xayGDUl1WKKuzvF8QyMF-1" value="汕头银之杜民宿" style="rounded=1;whiteSpace=wrap;html=1;fontSize=17;" vertex="1" parent="1">
          <mxGeometry x="-60" y="650" width="120" height="60" as="geometry" />
        </mxCell>
      </root>
    </mxGraphModel>
  </diagram>
</mxfile>
